<svg width="25" height="39" viewBox="0 0 25 39" fill="none" xmlns="http://www.w3.org/2000/svg">
<path d="M2.07974 20.8479C2.53566 20.8479 2.99158 20.7005 3.37381 20.392L24.2216 3.6889C25.115 2.97509 25.2624 1.67182 24.544 0.778404C23.8255 -0.115007 22.5269 -0.262374 21.6335 0.456039L0.781075 17.1591C-0.112335 17.8729 -0.255096 19.1808 0.45871 20.0742C0.868574 20.5854 1.47186 20.8525 2.07514 20.8525L2.07974 20.8479Z" fill="#FAF7EB"/>
<path d="M22.9275 38.1221C23.5354 38.1221 24.1387 37.855 24.5439 37.3438C25.2578 36.4504 25.115 35.1471 24.2216 34.4287L3.36918 17.7256C2.47577 17.0118 1.1725 17.1545 0.454086 18.048C-0.25972 18.9414 -0.116959 20.2446 0.776451 20.9631L21.6334 37.6662C22.0157 37.9747 22.4716 38.1221 22.9275 38.1221Z" fill="#FAF7EB"/>
</svg>
