<svg xmlns="http://www.w3.org/2000/svg" viewBox="0 0 87.71 76.78">
    <g data-name="Lager_2">
        <path fill="#FAF7EB"
            d="M51.23 22.11c7.87-1.14 5.17-6.78 8.43-6.72q9.27-1.19 12.72 2.24c4.52 4.01 13.89 13.5 12.28 14.64-9.31 9.09-8.2 12.22-11.15 8.12-2.46-3.5-5.31-4.22-5.58-.71-.12 3.89 1.11 32.64.64 33.39.07 2.05-2.65.66-19.84 1-17.2-.34-19.92 1.05-19.84-1-.24-.39-.02-8.3.22-16.37.05-1.7-2.55-1.76-2.53.02-.23 8.15-.39 16.65-.21 17.26.44 1.48 1.42 2.73 2.97 2.78l19.4-.06 19.4.06c1.55-.05 2.53-1.3 2.97-2.78.33-1.12-.5-28.87-.75-32.13q-.06-2.12 2.71 2c1.85 1.92 4.02.7 4.64.06l9.1-10.2c2-2.92 1.78-3.86-12.96-18.36q-4.21-3.78-15.53-2.54c-4.86 1.44-1.45 5.92-8.01 6.74-1.44.21-1.01 2.96.91 2.54Z" />
        <path fill="#FAF7EB"
            d="m39.76 38.86-1.01-5.8c-.02-.12.04-.23.15-.27 4.76-1.8 7.49-8.72 6.17-16.27C43.59 8.05 39.3 2.53 32.32.12q-.57-.2-1.12.25c-5.39 5.15-7.53 11.94-6.18 19.66 1.32 7.55 6.23 13.14 11.32 13.22.12 0 .22.08.24.2l1.01 5.8c.21 1.37 2.41.98 2.18-.38ZM32.44 9.83l3.7 21.19c-3.96-.2-7.84-4.97-8.96-11.37-1.11-6.37.4-12.03 4.38-16.48a1.38 1.38 0 0 1 1.58-.34c5.32 2.39 8.52 7.01 9.75 14.08 1.12 6.4-.9 12.21-4.57 13.74l-3.7-21.19c-.32-1.5-2.35-1.18-2.18.38ZM41.09 69.48c-2.45 0-3.57-1.06-4.09-1.96-1.75-3.04 1.1-8.32 2.02-9.86.45-.76 1.26-1.2 2.14-1.19.87.02 1.64.5 2.05 1.28 1.93 3.69 3.52 7.44 2.08 9.84-.74 1.24-2.12 1.87-4.11 1.89h-.08Zm2.19-3.09c1-1.62-1.04-7.56-2.15-7.56s-3.22 5.47-2.21 7.39c.79 1.14 2.98 1.87 4.36.17Z" />
        <path fill="#FAF7EB"
            d="m40.32 46.64-21.3-27.68c1.63-1.55.96-2.8.55-3.49l-5.98-7.78c-1.79-1.93-3.36-.48-3.61-.29-2.63-3.71-3.12-3.71-4.86-4.13C1.36 2.87.06 6.14.02 7.19c-.15 2.58.55 2.54 2.75 5.75-.17.17-1.8 1.23-.49 3.44l5.98 7.78c.46.6 1.93 1.66 3.84.11l21.3 27.69c2.62 3.66 10.24.64 6.92-5.32ZM6.02 5.9l2.1 2.74-3.7 2.85S2.81 9.51 2.33 8.54c-.64-1.11.65-4.32 3.69-2.63Zm5.8 3.14 5.98 7.78c.06.08.04.24-.04.3 0 0-7.56 5.81-7.45 5.73s-.17.13-.31-.04-5.98-7.78-5.98-7.78c-.07-.1-.06-.23.04-.31l7.45-5.73s.15-.17.31.04Zm5.33 11.16 4.52 5.84-4.79.84-3.14-4.05 3.41-2.62Zm18 30.42L18.4 28.85l4.79-.84 15.37 19.98c1.51 1.88-1.17 4.85-3.41 2.62Z" />
    </g>
</svg>