<svg xmlns="http://www.w3.org/2000/svg" viewBox="0 0 86.11 69.87">
    <path fill="#FAF7EB"
        d="M.38 22.79c-.24 3.1-4.5 29.26 23.05 24.07 1.02-.38 3.95 1.59 6.36 21.24.1 2.51 2.83 2.34 2.96-.37.3-10.93 5.36-26.73 8.05-26.04 22.33 7.13 42.82-.24 45.19-35.24.47-6.88-.1-6.52-5.89-6.4-44.79.96-48.34 22.8-41.94 37.88.63 1.79-4.46 5.12-6.42 17.82-.71 4.77-.47 3.72-1.12.1-.42-2.38-3.78-10.71-3.34-11.69 2.37-5.22 5.65-20.68-18.46-26.62C.73 15.53 1 14.85.38 22.79Zm21.8 21.49C1.55 49.16 2.35 30.58 2.62 22.86c.15-4.32-.1-4.3 3.81-3.52 6.13 1.23 23.15 6.06 19.13 21.43-.71 2.7-1.45-4.92-10.9-10.46-1.89-1.11-3.36.67-1.89 1.83 3.96 3.13 11.97 11.53 9.42 12.14Zm17.26-9.64C32.32 3 76.38 2.82 80.15 2.57c2.87-.1 3.6.02 3.26 2.67-2.3 18.02-9.17 43.19-40.33 33.96-3.45-.81 9.84-16.18 29.52-26.57 1.51-1 .49-2.98-1.24-2.34-32.31 17.43-30.67 29.02-31.92 24.33Z"
        data-name="Lager_1" />
</svg>