<svg width="181" height="187" viewBox="0 0 181 187" fill="none" xmlns="http://www.w3.org/2000/svg">
<path d="M150.31 184.75L120.32 163.79C67.4 182.72 0 146.04 0 84.29C0 37.81 40.49 0 90.26 0C140.03 0 180.51 37.81 180.51 84.29C180.51 113.29 165.41 132.98 155.13 142.91L162.6 176.22C164.1 184.26 155.42 188.35 150.31 184.75ZM124.85 155.99L124.99 156.08L153.3 175.86L146.22 144.33C145.62 141.52 146.5 138.69 148.56 136.72C153.79 131.73 171.5 113.45 171.5 84.28C171.5 42.77 135.05 8.99 90.25 8.99C45.45 8.99 8.99001 42.76 8.99001 84.28C8.99001 135.65 64.25 173.01 117.89 155.1C118.77 154.81 121.87 154.05 124.85 155.98V155.99Z" fill="#FAF7EB"/>
<path d="M58.94 83.75C58.94 89.12 54.59 93.46 49.23 93.46C43.87 93.46 39.52 89.11 39.52 83.75C39.52 78.39 43.87 74.04 49.23 74.04C54.59 74.04 58.94 78.39 58.94 83.75ZM98.59 83.75C98.59 89.12 94.24 93.46 88.88 93.46C83.52 93.46 79.17 89.11 79.17 83.75C79.17 78.39 83.52 74.04 88.88 74.04C94.24 74.04 98.59 78.39 98.59 83.75ZM137.96 83.75C137.96 89.12 133.61 93.46 128.25 93.46C122.89 93.46 118.54 89.11 118.54 83.75C118.54 78.39 122.89 74.04 128.25 74.04C133.61 74.04 137.96 78.39 137.96 83.75Z" fill="#FAF7EB"/>
</svg>
