<svg width="151" height="193" viewBox="0 0 151 193" fill="none" xmlns="http://www.w3.org/2000/svg">
<path d="M72.1075 0.0245606C32.9581 -1.06767 29.3287 34.6028 29.5155 40.4103C12.9697 42.0619 0 56.0211 0 72.9639V149.287C0 167.348 14.6777 182 32.7713 182H109.229C127.322 182 142 167.348 142 149.287V72.9639C142 55.8613 128.763 41.7955 111.977 40.3836C111.684 33.1376 109.549 1.11679 72.0808 0.0512002L72.1075 0.0245606ZM100.689 40.2504H40.804C39.8433 31.1663 43.953 11.3198 71.6005 11.2931C96.5792 11.2931 102.023 29.9942 100.689 40.2504ZM40.804 75.5746V54.2363C40.804 52.7444 42.0049 51.5456 43.4993 51.5456H97.9669C99.4614 51.5456 100.662 52.7444 100.662 54.2363V75.5746C100.849 84.1792 112.004 84.4989 111.977 75.5746V55.0621C112.298 48.2157 130.445 55.7281 130.712 72.9639V149.287C130.712 161.115 121.104 170.731 109.229 170.731H32.7713C20.9224 170.731 11.2885 161.141 11.2885 149.287V72.9639C11.6888 55.5949 29.6756 48.5886 29.4888 55.2486V75.5746C29.4888 83.1936 40.6706 83.6731 40.804 75.5746Z" fill="#1C4230"/>
<circle cx="116.5" cy="158.5" r="34.5" fill="#FAF7EB"/>
<path d="M118.064 146.6H119.696V169H116.08V150.824L110.992 152.904V149.352L118.064 146.6Z" fill="#1C4230"/>
</svg>
