<svg xmlns="http://www.w3.org/2000/svg" viewBox="0 0 80.71 77.01">
    <g data-name="Lager_1">
        <path fill="#FAF7EB"
            d="M52.64 38.16h-10.6c-.2 0-.36-.16-.36-.36V4.08c0-.2.16-.36.36-.36h11.31c.49 0 .65.42.5.72-.89 2.36-4.83 9.51-6.67 13.54-.62 1.35-.75 3.26-.32 4.68.78 2.44 3.83 6.95 9.36 6.82 3.99-.15 8.2-2.65 9.33-7.16.4-1.59.16-3.29-.55-4.77-1.96-4.04-6.33-12.2-7.01-13.46a.325.325 0 0 1 .01-.33c1.59-2.77-2.07-5.08-3.93-2.68-.07.08-.16.14-.27.14-2.28.1-24.99 0-27.21-.01a.36.36 0 0 1-.29-.13c-2.21-2.77-5.53.49-3.88 2.76.09.13.1.12.05.23-.68 1.26-5.06 9.43-7.01 13.47-.72 1.48-.97 3.17-.56 4.76 1.14 4.51 5.33 7.01 9.34 7.16 5.52.13 8.58-4.38 9.35-6.82.42-1.42.29-3.33-.31-4.68-1.84-4.03-5.79-11.17-6.68-13.54-.14-.31-.22-.69.41-.7H38.8c.2 0 .36.16.36.36V37.8c0 .2-.16.36-.36.36H28.2c-3.58 0-3.58 6.22 0 6.22h24.44c3.59 0 3.59-6.22 0-6.22Zm-21.37-16.7c-.77 3.17-3.63 5.53-7.03 5.53s-6.26-2.36-7.03-5.53c-.06-.23.12-.45.36-.45H30.9c.23 0 .41.22.36.45Zm-.83-3.5c.12.24-.06.52-.33.52H18.42c-.27 0-.44-.28-.32-.53l6-11.5c.14-.27.51-.26.65 0l5.7 11.51Zm20.78 23.9H29.61c-.67 0-.64-1.18 0-1.18h21.61c.59 0 .62 1.18 0 1.18Zm-1.2-23.94 5.7-11.5c.13-.27.51-.27.65-.01l6 11.51c.13.24-.05.53-.32.53H50.36c-.27 0-.44-.28-.33-.53Zm6.21 9.03c-3.41 0-6.26-2.36-7.03-5.53-.06-.23.12-.44.35-.44h13.34c.23 0 .41.21.36.44-.78 3.17-3.63 5.53-7.03 5.53ZM67.93 75.65c-.37 2.03-2.71 1.04-2.52 0v-7.76c0-1.72.91-3.3 2.39-4.17 6.45-3.82 10.52-10.86 10.52-18.42 0-6.76-2.83-12.73-8.04-16.72-1.95-1.38-2.17.6-.96 1.99 10.92 14.02-.44 22.12-2.41 23.4-1.13.73-2.87-1.03-1.31-2.15 2.34-1.69 4.25-3.75 5.2-6.35.78-2.1-1.47-3.64-2.93-.63-4.67 11.65-15.35 8.62-16.61 15.93-.38 5.29 3.19 4.36 3.14 7.38q0 2.75-.1 7.51c-.18 1.68-2.24 1.92-2.52 0 .37-4.49.48-6.41-.13-7.73-.87-1.88-2.67-2.47-2.67-6.68.27-10.72 11.74-5.91 16.54-17.32.47-1.12.98-2.78 3.73-3.39 2.01-.17 1.93.73 2.28.14-.06-1.68-1.22-4.46-5.03-9.93-2.12-3.03 1.05-6.54 5.34-4.16 5.22 2.9 18.19 23.31-2.22 38.99-1.42 1.09-1.6-.5-1.68 10.08ZM12.78 75.48c.37 2.03 2.71 1.04 2.52 0v-7.76c0-1.72-.91-3.3-2.39-4.17C6.46 59.73 2.39 52.69 2.39 45.13c0-6.76 2.83-12.73 8.04-16.72 1.95-1.38 2.17.6.96 1.99-10.92 14.02.44 22.12 2.41 23.4 1.13.73 2.87-1.03 1.31-2.15-2.34-1.69-4.25-3.75-5.2-6.35-.78-2.1 1.47-3.64 2.93-.63 4.67 11.65 15.35 8.62 16.61 15.93.38 5.29-3.19 4.36-3.14 7.38q0 2.75.1 7.51c.18 1.68 2.24 1.92 2.52 0-.37-4.49-.48-6.41.13-7.73.87-1.88 2.67-2.47 2.67-6.68-.27-10.72-11.74-5.91-16.54-17.32-.47-1.12-.98-2.78-3.73-3.39-2.01-.17-1.93.73-2.28.14.06-1.68 1.22-4.46 5.03-9.93 2.12-3.03-1.05-6.54-5.34-4.16-5.22 2.9-18.19 23.31 2.22 38.99 1.42 1.09 1.6-.5 1.68 10.08Z" />
    </g>
</svg>