<svg xmlns="http://www.w3.org/2000/svg" viewBox="0 0 86.41 69.17">
    <path d="M55.74 31.75v-4.12c0-1.46-.78-2.87-2.09-3.55-1.85-1.06-.44-3.14 1.31-2.33 2.15 1.15 3.45 3.45 3.45 5.88v4.12c-.04 1.73-2.65 1.65-2.68 0Zm-11.17-8.18h-9.83c-2.29 0-2.12-2.68-.03-2.68h9.86c2.01 0 2.05 2.68 0 2.68ZM51.74 59.57h-9.83c-2.29 0-2.12-2.68-.03-2.68h9.86c2.01 0 2.05 2.68 0 2.68ZM30.68 48.72v4.12c0 1.46.78 2.87 2.09 3.55 1.85 1.06.44 3.14-1.31 2.33-2.15-1.15-3.45-3.45-3.45-5.88v-4.12c.04-1.73 2.65-1.65 2.68 0ZM30.68 28.98v9.83c0 2.29-2.68 2.12-2.68.03v-9.86c0-2.01 2.68-2.05 2.68 0ZM58.41 41.99v9.83c0 2.29-2.68 2.12-2.68.03v-9.86c0-2.01 2.68-2.05 2.68 0Z"/>
    <path d="M63.24 68.99c3.08-.09 3.78-1.57 3.92-4.38.07-1.28-.76-28.68-1.03-32.26-.04-2.58.25-3.25 3.23.25 3.16 3.83 4.96 2.02 5.65 1.32l9.47-10.63q3.66-4.13-13.87-20.44c-4.09-3.09-3-3.39-17.69-2.2-4.39.24-1.15 6.53-9.71 6.89-8.27.01-5.28-6.69-9.71-6.89-14.69-1.19-13.6-.89-17.69 2.2Q-1.72 19.16 1.94 23.29l9.47 10.63c.69.7 2.49 2.51 5.65-1.32 2.98-3.5 3.27-2.83 3.23-.25-.27 3.58-1.1 30.98-1.03 32.26.14 2.81.83 4.29 3.92 4.38l19.99.18c3.84.02 20.07-.18 20.07-.18Zm-19.99-1.82c-20.98 0-21.57.52-21.74-3.56.1-4.31 1.01-30.04.88-34.31.1-1.76-2.06-3.92-5.19 0-4.4 5.52-3.16 3.64-13.48-7.05-3.23-3.41 2.61-7.1 11.95-16.22 4.63-4.47 4.7-4.69 15.69-3.73 5.85.54.81 6.88 11.82 7.15C54.13 9.4 49.08 3 55.06 2.3c10.99-.96 11.06-.74 15.68 3.73 9.35 9.12 15.19 12.81 11.96 16.22-10.32 10.69-9.08 12.57-13.48 7.05-3.13-3.92-5.29-1.76-5.19 0-.13 4.27.78 30 .88 34.31-.27 4.04-.67 3.65-21.66 3.56Z"/>
</svg>
