<svg data-name="Lager 2" xmlns="http://www.w3.org/2000/svg" viewBox="0 0 62.31 62.5">
    <path
        d="M40.41 32.3c5.36-2.92 9.01-8.6 9.01-15.11C49.41 7.71 41.7 0 32.22 0S15.03 7.71 15.03 17.19c0 6.24 3.34 11.71 8.33 14.72C9.94 35.19 0 46.7 0 60.36c0 2.86 4.33 2.83 4.33 0 0-13.81 12.03-25.05 26.82-25.05s26.82 11.24 26.82 25.05c0 2.86 4.33 2.83 4.33 0 0-13.17-9.22-24.33-21.9-28.06ZM19.36 17.19c0-7.09 5.77-12.86 12.86-12.86s12.86 5.77 12.86 12.86-5.77 12.86-12.86 12.86-12.86-5.77-12.86-12.86Z"
        style="fill:#44725a" data-name="Lager 5" />
</svg>