<svg xmlns="http://www.w3.org/2000/svg" viewBox="0 0 53.34 66.8">
    <g data-name="övriga">
        <path fill="#FAF7EB"
            d="M23 65.19c1.45 1.25 4.16 2.84 7.22.13l.16-.15C34.32 61.9 67.72 33.9 46.15 8.51c-16.73-16.54-35.27-4.7-38.92 0C5.42 10.84-15.34 32.31 23 65.19Zm2.34-2.79C15.7 54.19 9.63 46.44 5.66 37.12 1.8 28.08 3.6 17.17 9.88 11.02c15.05-14.33 29.3-4.66 33.62 0 6.63 6.61 8.08 17.06 4.22 26.1-3.9 9.12-10.16 17.15-19.71 25.29q-1.15.94-2.66-.01Z" />
        <path fill="#FAF7EB"
            d="M26.66 13.01c18.53 0 18.86 27.12.01 27.63-17.37 0-19.94-27.63-.01-27.63Zm.01 23.98c14.61-.33 12.84-20.67 0-20.67-14.9.39-12.6 20.68 0 20.67Z" />
    </g>
</svg>