<svg width="35" height="34" viewBox="0 0 35 34" fill="none" xmlns="http://www.w3.org/2000/svg">
<path d="M25.4388 0H9.30514C4.29815 0 0.248047 4.02079 0.248047 8.99155V25.0084C0.248047 29.9792 4.29815 34 9.30514 34H25.4388C30.4458 34 34.4959 29.9571 34.4959 25.0084V8.99155C34.4959 4.02079 30.4458 0 25.4388 0ZM32.4931 25.0084C32.4931 28.8746 29.3331 32.0117 25.4388 32.0117H19.6529C19.3859 32.0117 19.1633 31.7908 19.1633 31.5257V20.2807C19.1633 20.1261 19.2746 20.0156 19.4304 20.0156H22.3901C22.5459 20.0156 22.6794 19.883 22.6794 19.7284V15.4646C22.6794 15.3099 22.5459 15.1774 22.3901 15.1774H19.4304C19.2301 15.1111 19.0743 15.2437 19.1633 13.8298C19.0298 10.2729 19.7642 11.0903 21.678 10.9799C22.4346 10.9799 22.6126 10.9799 22.6349 10.5822V6.64977C22.6349 6.42885 22.4568 6.25211 22.2343 6.25211H19.2079C13.8448 6.36257 14.5792 12.5042 14.5569 14.8902C14.5569 15.0448 14.4457 15.1553 14.2899 15.1553H12.6431C12.4874 15.1553 12.3538 15.2878 12.3538 15.4425V19.7063C12.3538 19.8609 12.4874 19.9935 12.6431 19.9935H14.2899C14.4457 19.9935 14.5569 20.104 14.5569 20.2586V31.5036C14.5569 31.7687 14.3344 31.9896 14.0673 31.9896H9.32739C5.43307 31.9896 2.2731 28.8525 2.2731 24.9864V8.96946C2.2731 5.10331 5.43307 1.96621 9.32739 1.96621H25.461C29.3554 1.96621 32.5153 5.10331 32.5153 8.96946V24.9864L32.4931 25.0084Z" fill="#FAF7EB"/>
</svg>
