<svg width="20" height="25" viewBox="0 0 20 25" fill="none" xmlns="http://www.w3.org/2000/svg">
<path d="M10.0684 0.00337371C4.60197 -0.146657 4.09519 4.75314 4.12128 5.55086C1.81098 5.77774 0 7.69521 0 10.0225V20.5064C0 22.9874 2.04946 25 4.57588 25H15.2517C17.7781 25 19.8276 22.9874 19.8276 20.5064V10.0225C19.8276 7.67325 17.9793 5.74114 15.6355 5.5472C15.5945 4.55187 15.2964 0.153405 10.0647 0.007033L10.0684 0.00337371ZM14.0593 5.52891H5.6975C5.56335 4.28109 6.1372 1.55491 9.99763 1.55125C13.4854 1.55125 14.2456 4.12008 14.0593 5.52891ZM5.6975 10.3811V7.45003C5.6975 7.24511 5.86518 7.08045 6.07385 7.08045H13.6792C13.8879 7.08045 14.0556 7.24511 14.0556 7.45003V10.3811C14.0816 11.5631 15.6392 11.607 15.6355 10.3811V7.56347C15.6802 6.62303 18.2141 7.65495 18.2514 10.0225V20.5064C18.2514 22.1311 16.9099 23.4521 15.2517 23.4521H4.57588C2.92141 23.4521 1.57622 22.1348 1.57622 20.5064V10.0225C1.63211 7.63666 4.14363 6.67426 4.11755 7.58909V10.3811C4.11755 11.4277 5.67887 11.4936 5.6975 10.3811Z" fill="#44725A"/>
</svg>
