<svg xmlns="http://www.w3.org/2000/svg" viewBox="0 0 86.41 69.17">
    <path d="M52.19 21.9H34.21c-3.12 0-5.66 2.54-5.66 5.66v17.98c0 3.12 2.54 5.66 5.66 5.66h17.98c3.12 0 5.66-2.54 5.66-5.66V27.56c0-3.12-2.54-5.66-5.66-5.66ZM30.81 43.65l8.76-10.34c.57-.59 1.46-.64 2.06 0l4.27 5.04.09.09-4.44 5.48c-.82 1.14.6 2.31 1.53 1.24l5.52-6.81c.51-.63 1.37-.63 1.88 0l5.31 6.55c.07.1.13.31.12.64 0 2.04-1.66 3.7-3.7 3.7H34.23c-1.79 0-3.84-.94-3.7-4.83 0-.15.02-.37.29-.76Zm7.26-11.61-7.55 8.91V27.56c0-2.04 1.66-3.7 3.7-3.7H52.2c2.04 0 3.7 1.66 3.7 3.7v14.38l-3.91-4.82c-.64-.8-1.52-1.23-2.46-1.23-.86 0-1.66.36-2.28 1.02l-4.12-4.87c-1.59-1.88-3.26-1.99-5.06 0Z"/>
    <path d="M53.17 31.19c0-2.07-1.69-3.76-3.76-3.76s-3.76 1.69-3.76 3.76 1.68 3.76 3.76 3.76 3.76-1.68 3.76-3.76Zm-1.96 0c0 .99-.8 1.79-1.79 1.79s-1.79-.8-1.79-1.79.8-1.79 1.79-1.79 1.79.8 1.79 1.79Z"/>
    <path d="M63.24 68.99c3.08-.09 3.78-1.57 3.92-4.38.07-1.28-.76-28.68-1.03-32.26-.04-2.58.25-3.25 3.23.25 3.16 3.83 4.96 2.02 5.65 1.32l9.47-10.63q3.66-4.13-13.87-20.44c-4.09-3.09-3-3.39-17.69-2.2-4.39.24-1.15 6.53-9.71 6.89-8.27.01-5.28-6.69-9.71-6.89-14.69-1.19-13.6-.89-17.69 2.2Q-1.72 19.16 1.94 23.29l9.47 10.63c.69.7 2.49 2.51 5.65-1.32 2.98-3.5 3.27-2.83 3.23-.25-.27 3.58-1.1 30.98-1.03 32.26.14 2.81.83 4.29 3.92 4.38l19.99.18c3.84.02 20.07-.18 20.07-.18Zm-19.99-1.82c-20.98 0-21.57.52-21.74-3.56.1-4.31 1.01-30.04.88-34.31.1-1.76-2.06-3.92-5.19 0-4.4 5.52-3.16 3.64-13.48-7.05-3.23-3.41 2.61-7.1 11.95-16.22 4.63-4.47 4.7-4.69 15.69-3.73 5.85.54.81 6.88 11.82 7.15C54.13 9.4 49.08 3 55.06 2.3c10.99-.96 11.06-.74 15.68 3.73 9.35 9.12 15.19 12.81 11.96 16.22-10.32 10.69-9.08 12.57-13.48 7.05-3.13-3.92-5.29-1.76-5.19 0-.13 4.27.78 30 .88 34.31-.27 4.04-.67 3.65-21.66 3.56Z"/>
</svg>
