<svg width="159" height="141" viewBox="0 0 159 141" fill="none" xmlns="http://www.w3.org/2000/svg">
    <path
        d="M146.9 140.3H11.7C5.3 140.3 0 135.1 0 128.6V11.7C0 5.3 5.2 0 11.7 0H146.9C153.3 0 158.6 5.2 158.6 11.7V128.6C158.6 135 153.4 140.3 146.9 140.3ZM11.7 9.1C10.2 9.1 9 10.3 9 11.8V128.7C9 130.2 10.2 131.4 11.7 131.4H146.9C148.4 131.4 149.6 130.2 149.6 128.7V11.8C149.6 10.3 148.4 9.1 146.9 9.1H11.7Z"
        style="fill:#44725a" />
    <path
        d="M122.4 45H63.8C57.9 45 57.8 36 63.8 36H122.4C128.3 36 128.4 45 122.4 45ZM122.4 75.6H63.8C57.9 75.6 57.8 66.6 63.8 66.6H122.4C128.3 66.6 128.4 75.6 122.4 75.6ZM42.9 45H33.2C27.3 45 27.2 36 33.2 36H42.9C48.8 36 48.9 45 42.9 45ZM42.9 74.7H33.2C27.3 74.7 27.2 65.7 33.2 65.7H42.9C48.8 65.7 48.9 74.7 42.9 74.7ZM42.9 105.3H33.2C27.3 105.3 27.2 96.3 33.2 96.3H42.9C48.8 96.3 48.9 105.3 42.9 105.3ZM122.4 105.3H63.8C57.9 105.3 57.8 96.3 63.8 96.3H122.4C128.3 96.3 128.4 105.3 122.4 105.3Z"
        style="fill:#44725a" />
</svg>