<svg width="35" height="34" viewBox="0 0 35 34" fill="none" xmlns="http://www.w3.org/2000/svg">
<path d="M25.1907 34H9.05709C4.0501 34 0 29.9571 0 25.0084V8.99155C0 4.02079 4.07235 0 9.05709 0H25.1907C30.1977 0 34.2478 4.04288 34.2478 8.99155V25.0084C34.2478 29.9792 30.1755 34 25.1907 34ZM9.05709 1.96621C5.16276 1.96621 2.0028 5.10331 2.0028 8.96946V24.9864C2.0028 28.8525 5.16276 31.9896 9.05709 31.9896H25.1907C29.0851 31.9896 32.245 28.8525 32.245 24.9864V8.96946C32.245 5.10331 29.0851 1.96621 25.1907 1.96621H9.05709Z" fill="#FAF7EB"/>
<path d="M16.9349 25.9803C11.9724 25.9803 7.94458 21.9816 7.94458 17.055C7.94458 12.1284 11.9724 8.12971 16.9349 8.12971C21.8974 8.12971 25.9252 12.1284 25.9252 17.055C25.9252 21.9816 21.8974 25.9803 16.9349 25.9803ZM16.9349 11.1122C13.6414 11.1122 10.9488 13.7853 10.9488 17.055C10.9488 20.3246 13.6414 22.9978 16.9349 22.9978C20.2284 22.9978 22.921 20.3246 22.921 17.055C22.921 13.7853 20.2284 11.1122 16.9349 11.1122ZM28.4844 7.59949C28.4844 8.79248 27.5275 9.74244 26.3258 9.74244C25.1241 9.74244 24.1672 8.79248 24.1672 7.59949C24.1672 6.40651 25.1241 5.45654 26.3258 5.45654C27.5275 5.45654 28.4844 6.40651 28.4844 7.59949Z" fill="#FAF7EB"/>
</svg>
