<svg data-name="Lager 2" xmlns="http://www.w3.org/2000/svg" viewBox="0 0 86.61 69.08">
    <path style="fill:#44725a"
        d="M70.75 2.75c-3.07-2.67-3-3.39-17.69-2.2-4.39.24-1.19 6.53-9.75 6.89-8.56-.36-5.36-6.65-9.75-6.89C18.87-.64 18.93.09 15.87 2.75-1.96 18.26-1.66 19.06 2 23.19l9.47 10.63c.69.7 2.49 2.51 5.65-1.32 2.98-3.5 3.27-2.83 3.23-.25-.27 3.58-1.1 30.98-1.03 32.26.14 2.81.84 4.29 3.92 4.38 0 0 16.23.2 20.07.18 3.84.02 20.07-.18 20.07-.18 3.08-.09 3.78-1.57 3.92-4.38.07-1.28-.76-28.68-1.03-32.26-.04-2.58.25-3.25 3.23.25 3.16 3.83 4.96 2.02 5.65 1.32l9.47-10.63c3.66-4.13 3.95-4.94-13.87-20.44Zm12.08 19.4c-10.32 10.69-9.08 12.57-13.48 7.05-3.13-3.92-5.29-1.76-5.19 0-.13 4.27.78 30 .88 34.31-.27 4.04-.74 3.65-21.73 3.57-20.99.08-21.46.47-21.73-3.57.1-4.31 1.01-30.04.88-34.31.1-1.76-2.06-3.92-5.19 0-4.4 5.52-3.16 3.64-13.48-7.05-3.23-3.41 2.61-7.1 11.96-16.22 4.62-4.47 4.45-4.42 15.44-3.46 5.98.7 1.17 6.83 12.12 6.88 10.95-.05 6.14-6.19 12.12-6.88 10.99-.96 10.82-1.01 15.44 3.46 9.35 9.12 15.19 12.81 11.96 16.22Z" />
</svg>