<svg xmlns="http://www.w3.org/2000/svg" viewBox="0 0 102.81 63.19">
    <path d="M12.18 5.07C32.3 18.15 35.3 3.38 48.34 7.93c.81.28.88 1.43.09 1.76-5.99 3.04-13.83 1.3-14.44 6.61 0 0 .29 9.88 15.25 5.94 7.41-.83 2.54 5.75 12.01 7.41 1.03.43 18.09 10.48 20.9 12.17 2.9 2.11.15 6.52-2.84 4.6 0 0-9.84-6.07-12.74-7.87-1.24-.77-1.93 1.14-1.01 1.64l9.55 5.9c2.25.59 1.58 7.15-3.14 5.17q-4.54-2.63-11.11-6.6c-1.09-.73-2.01 1.12-1.01 1.65l7.48 4.57c2.98 1.95-.37 7.42-3.46 5.66 0 0-8.39-5.06-11.01-6.73-.9-.57-2 .96-1 1.65l6.16 3.77v.02c3.04 1.94-.58 7.44-3.41 5.7l-4.05-2.93c-.31-.22-.47-.62-.36-.98.95-3.16-1.1-6.62-4.22-6.71-.52-.01-.9-.48-.88-1.01.09-3.02-2.51-5.11-5.44-4.47-.54.12-1.06-.28-1.12-.83-.37-3.35-3.49-4.58-6.63-3.03-.48.23-1.08.07-1.28-.43-1.24-2.98-5.33-3.56-7.82-1.55-.48.38-1.16.27-1.46-.27-1.39-2.55-1.25-4.76-6.84-6.87-.09-.04-8.49-3.88-13.11-6.2-1.14-.57-1.99 1.15-.87 1.72 4.65 2.39 13.1 6.2 13.25 6.27 6 2.12 4.16 4.6 6.91 7.47.24.25.29.61.19.94-1.04 3.6 1.53 7.44 5.16 6.41a.914.914 0 0 1 1.13.73c.4 2.52 2.53 4.14 4.95 3.73.52-.09 1.03.3 1.06.82.19 2.8 2.7 4.09 5.24 3.39.55-.15 1.12.24 1.16.81.3 4.85 5.91 5.84 8.98 2.04.31-.38.87-.44 1.26-.16l3.73 2.69c2.98 1.85 6.76-.7 7.44-3.91.13-.62.82-.9 1.38-.6 3.24 1.76 7.41-.23 7.98-3.91.09-.59.71-.91 1.27-.71 2.79 1.01 6.05-1.16 6.54-4.08.1-.59.68-.94 1.24-.75 4.34 1.48 8.24-4.67 4.47-7.89a.933.933 0 0 1-.23-1.11c3.39-6.88 9.84-8.12 18.59-11.75.44-.18.68-.67.55-1.13v-.03a.953.953 0 0 0-1.28-.6c-9.28 3.85-15.2 4.75-19.46 12.36-.26.46-.82.64-1.28.38-3.04-1.71-8.4-4.74-12.51-7.18-.73-.44-.55-1.58.29-1.73 1.57-.21 2.94-.64 4-1.16 1.22-.6.37-2.44-.89-1.95-4.1 1.58-8.49 2.43-13.76-.72-.11-.07-.21-.16-.29-.26-2.66-3.41-2.88-7.22-11.51-4.8-7.1 2.1-14.31-5.1-7.24-6.72 3.72-.49 6.12-1.37 9.57-2.76C75.46-.27 61.78 25.38 93.13 1.7a.95.95 0 0 0 .05-1.47h-.01A.92.92 0 0 0 92 .18C62.31 21.83 76.18.81 53.14 7.71c-.25.08-.53.04-.76-.09-15.46-8.89-20.08 9.27-39.09-4.07-1.23-.86-2.41.67-1.11 1.52ZM23.6 46.35c-3.46-5.35 4.22-9.62 5.59-4.32-.52 5.32-4.58 5.48-5.59 4.32Zm6.16 3.68c-3.26-4.78 8.36-13.04 6.68-3.84-1.79 4.42-4.52 5.32-6.68 3.84Zm8.58-2.52c6.9-3.8 6.31 5.53.03 7.62-5.13 1.27-3.38-5.77-.03-7.62Zm9.76 9.7c-3.87 6.61-9.28 2.14-4.83-3.26 2.96-3.92 6.78-.4 4.83 3.26Z"/>
</svg>
