<svg xmlns="http://www.w3.org/2000/svg" viewBox="0 0 82.41 79.02">
    <g data-name="Lager_1">
        <path fill="#FAF7EB"
            d="M47.59 1.21c2.73.78 5.82 5.47 7.79 8.08 1.23 1.46 1.37 1.38 3.39-.18 2.18-1.38 3.79.44 3.79 2.64-.29 9.19-1.16 16.32-1.38 19.39-.12 1.37-.97 2.23-2.64 1.88-2.75-.84-8.69-2.61-17.68-5.27-.94-.38-2.2-2.08-.61-4.01 1.28-1.67 3.31-.98-.79-4.27-1.21-.9-1.29-1.08-1.87 1.29-.82 2.68-1.64 5.84-2.49 8s-3.12 2.75-5.26 2.2c-4.65-1.35-7.89-2.48-11.1-3.58-3.97-1.25-3.57-4.62-.67-10.83 3.4-7.37 8.55-20.63 29.52-15.36ZM42.3 5.48c2.9-2.79 4.82-2.07 2.07-2.76-12.95-1.71-20.83 1.95-25.98 20.09-.34 1.59.61 2.24 2.2 2.7 2.24.87 5.11 1.79 7.72 2.53 3.99.91 3.87 1.8 5.94-4.35.54-1.67 3.73-14.46 8.05-18.21Zm-1.11 12.24c5.17 4.33 2.98 5.81 1.61 6.92q-1.25.85.27 1.38c4.28 1.49 12.35 3.57 14.59 4.37q1.23.36 1.27-.74c.09-3.23 1.05-12.41 1.23-17.23q.13-1.75-1.48-.47c-2.93 2.13-4.45-.48-8.35-5.16-1.76-1.96-1.62-2.15-2.94-1.74-4.09 1.14-6.62 6.96-7.77 10.16-.49 1.67-1.03.39 1.56 2.52ZM73.69 71.08c-2.08 1.93-7.7 2.15-10.95 2.48-1.89.3-1.89.46-1.6 2.99.05 2.58-2.34 3.01-4.22 1.87-7.71-5.01-13.36-9.44-15.88-11.22-1.11-.81-1.4-1.98-.24-3.23 2.14-1.92 6.73-6.09 13.66-12.4.82-.61 2.92-.81 3.74 1.55.76 1.96-.87 3.34 4.06 1.53 1.4-.57 1.59-.55-.14-2.27-1.87-2.08-4.15-4.42-5.56-6.27s-.73-4.09.84-5.64c3.56-3.28 6.21-5.47 8.81-7.65 3.12-2.75 5.8-.67 9.62 5.03 4.54 6.72 13.22 18-2.14 33.21Zm-.92-6.73c.89 3.93-.72 5.19 1.29 3.2 8.16-10.19 9.12-18.83-3.74-32.63-1.19-1.12-2.23-.64-3.45.49-1.91 1.46-4.17 3.45-6.16 5.29-2.84 2.95-3.55 2.37.65 7.34 1.15 1.32 10.44 10.68 11.41 16.31Zm-9.9-7.29c-6.38 2.19-6.51-.46-6.75-2.21q-.09-1.51-1.32-.48c-3.49 2.89-9.45 8.71-11.29 10.22q-.94.87-.02 1.47c2.72 1.75 10.07 7.32 14.1 9.97q1.43 1.01 1.17-1.02c-.3-3.61 2.71-3.56 8.74-4.47 2.59-.49 2.68-.27 3.01-1.62 1.14-4.09-2.53-9.27-4.67-11.9-1.18-1.28.2-1.09-2.96.03ZM0 54.84C-.12 52 3.37 47.59 5.23 44.9c1-1.63.88-1.74-1.23-3.16-1.99-1.64-.77-3.73 1.32-4.43 8.82-2.6 15.86-4.03 18.85-4.78 1.34-.32 2.42.22 2.61 1.91.06 2.88.25 9.07.55 18.44-.07 1.02-1.28 2.74-3.61 1.84-1.98-.7-1.97-2.84-3.8 2.09-.47 1.43-.62 1.56 1.82 1.37 2.8-.07 6.06-.28 8.38-.15s3.59 2.1 3.74 4.31c.18 4.84.12 8.28.09 11.67.06 4.16-3.26 4.84-10.07 4.04C15.79 77.13 1.59 76.4 0 54.84Zm5.72 3.67c-3.56-1.88-3.48-3.92-3.27-1.1 2.44 12.83 8.39 19.17 27.24 18.36 1.62-.18 1.94-1.28 1.87-2.93.13-2.4.09-5.41-.02-8.12-.39-4.08.5-4.24-6-4.27-1.76.02-14.9 1-19.82-1.93Zm11.97-2.79c2.48-6.27 4.58-4.66 6.07-3.7q1.2.92 1.23-.69c.07-4.53-.48-12.84-.43-15.23q-.05-1.28-1.1-.97c-3.1.93-12.11 2.9-16.74 4.24q-1.7.43.02 1.55c2.94 2.11.94 4.38-2.28 9.54-1.31 2.29-1.53 2.21-.73 3.34 2.37 3.53 8.69 4.1 12.08 4.18 1.74-.06.7.86 1.9-2.27Z" />
    </g>
</svg>