<svg width="36" height="37" viewBox="0 0 36 37" fill="none" xmlns="http://www.w3.org/2000/svg">
<path d="M26.8388 14.9195L18.8487 4.73225V30.4071C18.8487 32.0918 16.3526 32.072 16.3526 30.4071V4.68978L8.32641 14.9195C7.21982 16.188 5.4088 14.693 6.37671 13.3255L16.4358 0.505008C16.7131 0.0321689 18.1026 -0.344404 18.7266 0.507839L28.7857 13.3255C29.7536 14.6958 27.9426 16.188 26.8388 14.9195Z" fill="#1C4230"/>
<path d="M32.4903 36.455H2.71238C1.21752 36.455 0 35.1441 0 33.5359V25.2088C0 23.5411 2.49605 23.5241 2.49605 25.2088V33.5359C2.49605 33.7595 2.6264 33.9068 2.71238 33.9068H32.4903C32.5762 33.9068 32.7066 33.7595 32.7066 33.5359V25.2088C32.7066 23.5411 35.2027 23.5241 35.2027 25.2088V33.5359C35.2027 35.1469 33.9851 36.455 32.4903 36.455Z" fill="#1C4230"/>
</svg>
