<svg width="35" height="34" viewBox="0 0 35 34" fill="none" xmlns="http://www.w3.org/2000/svg">
<path d="M25.9349 34H9.80123C4.79424 34 0.744141 29.9571 0.744141 25.0084V8.99155C0.744141 4.02079 4.81649 0 9.80123 0H25.9349C30.9419 0 34.992 4.04289 34.992 8.99155V25.0084C34.992 29.9792 30.9196 34 25.9349 34ZM9.80123 1.96621C5.9069 1.96621 2.74694 5.10331 2.74694 8.96946V24.9864C2.74694 28.8525 5.9069 31.9896 9.80123 31.9896H25.9349C29.8292 31.9896 32.9892 28.8525 32.9892 24.9864V8.96946C32.9892 5.10331 29.8292 1.96621 25.9349 1.96621H9.80123Z" fill="#FAF7EB"/>
<path d="M29.1617 23.7931C28.4941 24.9861 27.7597 25.185 26.291 25.2954C24.2659 25.428 11.448 25.428 9.37848 25.2954C7.30893 25.1629 7.21992 24.9861 6.55232 23.7931C5.15036 21.3188 5.28388 12.3714 6.55232 10.1622C7.21992 8.96923 7.93202 8.7483 9.42299 8.68203C10.914 8.61575 24.4217 8.57157 26.291 8.68203C28.1603 8.79249 28.5163 8.99132 29.1839 10.1622C30.9419 13.2551 30.2076 21.9816 29.1839 23.7931H29.1617Z" fill="#FAF7EB"/>
<path d="M14.8975 21.6061L22.6416 16.9889L14.8975 12.3716V21.6061Z" fill="#1C4230"/>
</svg>
