<svg width="35" height="34" viewBox="0 0 35 34" fill="none" xmlns="http://www.w3.org/2000/svg">
<path d="M25.6868 34H9.55318C4.54619 34 0.496094 29.9571 0.496094 25.0084V8.99155C0.496094 4.02079 4.56845 0 9.55318 0H25.6868C30.6938 0 34.7439 4.04289 34.7439 8.99155V25.0084C34.7439 29.9792 30.6716 34 25.6868 34ZM9.57544 1.96621C5.68111 1.96621 2.52115 5.10331 2.52115 8.96946V24.9864C2.52115 28.8525 5.68111 31.9896 9.57544 31.9896H25.7091C29.6034 31.9896 32.7634 28.8525 32.7634 24.9864V8.96946C32.7634 5.10331 29.6034 1.96621 25.7091 1.96621H9.57544Z" fill="#FAF7EB"/>
<path d="M8.66301 12.8135H12.6686V25.6712H8.66301V12.8135ZM10.6436 11.1345C11.9565 11.1345 13.0247 10.0741 13.0247 8.77061C13.0247 7.46717 11.9565 6.40674 10.6436 6.40674C9.33061 6.40674 8.26245 7.46717 8.26245 8.77061C8.26245 10.0741 9.33061 11.1345 10.6436 11.1345ZM19.0776 18.911C19.0776 15.1111 23.7062 14.846 23.7062 18.911V25.6712H27.6896V17.5191C27.6896 14.0728 25.7313 12.4158 22.9719 12.4158C20.2125 12.4158 19.0776 14.5367 19.0776 14.5367V12.8135H15.2277V25.6712H19.0776V18.911Z" fill="#FAF7EB"/>
</svg>
