<svg width="181" height="147" viewBox="0 0 181 147" fill="none" xmlns="http://www.w3.org/2000/svg">
<path d="M36.8156 139.825L2.8156 89.1252C-3.2844 80.0252 1.6156 70.3252 7.2156 66.5252L102.316 2.72517C105.216 0.825173 108.516 -0.174824 112.016 0.0251764L166.216 2.02518C176.316 2.42518 183.316 12.5252 179.616 22.2252L160.716 72.6252C159.516 75.8252 157.416 78.5252 154.516 80.4252C151.616 82.3252 59.4156 144.225 59.4156 144.225C54.7156 147.325 43.0156 149.025 36.8156 139.825ZM111.416 9.02518C110.016 9.02518 108.616 9.42517 107.416 10.2252L12.3156 74.0252C10.6156 75.1252 7.2156 79.4252 10.3156 84.1252L44.3156 134.825C45.4156 136.525 49.7156 139.925 54.4156 136.825L149.516 73.0252C150.816 72.2252 151.716 70.9252 152.316 69.5252L171.216 19.1252C172.716 15.0252 169.516 11.2252 165.916 11.1252C162.316 11.0252 111.616 9.12517 111.516 9.12517L111.416 9.02518Z" fill="#1C4230"/>
<path d="M139.116 39.525C139.116 43.825 135.616 47.325 131.316 47.325C127.016 47.325 123.516 43.825 123.516 39.525C123.516 35.225 127.016 31.625 131.316 31.625C135.616 31.625 139.116 35.125 139.116 39.525Z" fill="#1C4230"/>
</svg>
