<svg data-name="Lager 2" xmlns="http://www.w3.org/2000/svg" viewBox="0 0 67.78 65.02">
    <g data-name="övriga">
        <path data-name="gronatryck_icon_ star_filled"
            d="M65.88 30.04 51.6 40.57c-.34.25-.48.68-.35 1.08l5.46 16.81c1.55 5.66-4.71 8.09-7.68 5.58L34.74 53.65a.96.96 0 0 0-1.14 0L19.3 64.04c-5.1 2.9-9.17-2.22-7.68-5.58l5.46-16.81c.14-.4-.01-.83-.35-1.08L2.43 30.18c-5.19-4.55-1.03-9.02 2.94-9.02h17.67c.42 0 .79-.27.92-.67l5.46-16.81c.88-3.25 6.54-6.32 9.49 0l5.46 16.81c.13.4.5.67.92.67h17.68c5.91.11 5.74 7.38 2.91 8.88Z"
            style="fill:#44725a" />
    </g>
</svg>