<svg xmlns="http://www.w3.org/2000/svg" viewBox="0 0 71.68 76.66">
    <path d="M71.37 53.76c-.83-1.96-3.29-3.41-6.38-2.39-.64.21-3.53 1.28-6.87 2.52C51 40.65 41.67 37.31 34.27 37.2c0-.49.03-3.26.02-6.53 15.89-2.5 25.59-12.16 27.35-27.28.09-.79-.13-1.57-.64-2.2-.5-.62-1.21-1-2-1.07-7.3-.67-14.62 1.53-19.57 5.91-3.65 3.24-5.95 7.55-6.75 12.64-1.39-1.88-3.63-3.69-6.53-5.2-4.86-2.53-11.84-4.19-16.46-2.19-1.4.6-2.08 2.28-1.53 3.74 4.62 12.16 17.74 15.82 24.29 15.82h.04c0 3.33-.02 6.09-.03 6.4-2.01.11-3.83.43-5.37.81-8.12 2.03-14.97 7.36-14.97 9.63l1.8.03c.23-1.23 7-7.04 16.21-8.44 7.6-1.16 18.29.58 26.28 15.26-3.61 1.34-7.38 2.76-9.26 3.46-.7-1.98-2.83-3.43-4.57-3.09-.75.11-1.45.21-2.1.31-7.19 1.07-9.12 1.37-20.01-6.27l-.12-.07C13.15 45.28.97 51.9.46 52.18c-.44.24-.59.79-.35 1.22.24.44.79.59 1.22.35.12-.06 11.78-6.41 18.16-3.31 11.42 8.01 13.71 7.67 21.25 6.54.65-.1 1.34-.2 2.14-.31.96-.19 2.28.84 2.63 2.04 0 .03 0 .05.01.08-.16.23-.21.53-.11.81.02.06.07.11.1.16-.26.83-1.16 1.37-2.04 1.71-10.35 4.98-16.39 2.57-18.66 1.66-.49-.19-.81-.32-1.1-.37-.49-.06-.93.26-1.01.74s.26.95.74 1.03c.1.02.42.15.7.26 1.32.53 3.82 1.52 7.55 1.52 3.23 0 7.39-.75 12.5-3.21 2.26-.87 2.98-2.19 3.15-3.28 3.37-1.26 16.8-6.29 18.21-6.76 2.06-.68 3.65.18 4.16 1.39.6 1.42-.31 3.03-2.34 4.08l-1.45.76c-10.38 5.43-14.28 7.47-31.37 15.48-3.91.45-8.28-1.22-12.9-2.99-5.85-2.24-11.9-4.56-18.12-3.13-.48.11-.79.59-.67 1.08s.6.78 1.08.67c5.69-1.31 11.48.91 17.07 3.05 4.26 1.63 8.31 3.19 12.19 3.19.57 0 1.15-.03 1.71-.11l.27-.08c17.23-8.08 21.13-10.12 31.57-15.58l1.45-.76c3.31-1.73 3.97-4.45 3.16-6.38Zm-39.1-24.71c-7.11 0-18.54-4.45-22.42-14.67-.22-.57.04-1.22.56-1.45 1.17-.5 2.6-.75 4.19-.75 3.23 0 7.11 1.01 10.72 2.89 3.9 2.03 6.54 4.65 7.06 7.02.06 2 .09 4.54.1 6.96h-.22Zm8.36-21.68c4.03-3.57 9.78-5.58 15.75-5.58.82 0 1.64.04 2.46.12a1.135 1.135 0 0 1 1.02 1.27c-1.65 14.18-10.74 23.26-25.57 25.67-.01-2.4-.04-4.9-.1-6.86.17-5.98 2.4-11.04 6.45-14.62Z"/>
</svg>
