<svg width="204" height="163" viewBox="0 0 204 163" fill="none" xmlns="http://www.w3.org/2000/svg">
<path d="M166.632 6.50067C159.401 0.200237 159.566 -1.49875 124.967 1.3093C114.627 1.87563 122.164 16.7182 102.002 17.5677C81.841 16.7182 89.378 1.87563 79.0382 1.3093C44.4387 -1.49875 44.58 0.223834 37.3727 6.50067C-4.62247 43.0998 -3.91588 44.9875 4.70456 54.7332L27.0094 79.8169C28.6345 81.4687 32.8741 85.7397 40.3169 76.7021C47.3357 68.4431 48.0187 70.0241 47.9245 76.1121C47.2886 84.5599 45.3337 149.216 45.4985 152.236C45.8283 158.867 47.477 162.36 54.7314 162.572C54.7314 162.572 92.9581 163.044 102.002 162.997C111.047 163.044 149.274 162.572 149.274 162.572C156.528 162.36 158.177 158.867 158.506 152.236C158.671 149.216 156.716 84.5599 156.08 76.1121C155.986 70.0241 156.669 68.4431 163.688 76.7021C171.131 85.7397 175.37 81.4687 176.996 79.8169L199.3 54.7332C207.921 44.9875 208.604 43.0762 166.632 6.50067ZM195.084 52.279C170.778 77.5044 173.698 81.9406 163.335 68.915C155.963 59.6649 150.875 64.7619 151.111 68.915C150.805 78.991 152.948 139.706 153.183 149.877C152.547 159.41 151.44 158.49 102.002 158.301C52.5645 158.49 51.4575 159.41 50.8215 149.877C51.0571 139.706 53.2004 78.991 52.8942 68.915C53.1297 64.7619 48.0423 59.6649 40.6702 68.915C30.3068 81.9406 33.2274 77.5044 8.92056 52.279C1.31291 44.2324 15.0679 35.5251 37.0901 14.0045C47.9716 3.45664 47.5712 3.57462 73.4561 5.83995C87.5408 7.49174 76.2118 21.9568 102.002 22.0748C127.793 21.9568 116.464 7.46815 130.549 5.83995C156.434 3.57462 156.033 3.45664 166.915 14.0045C188.937 35.5251 202.692 44.2324 195.084 52.279Z" fill="#1C4230"/>
</svg>
