<svg width="25" height="18" viewBox="0 0 25 18" fill="none" xmlns="http://www.w3.org/2000/svg">
<path d="M23.9022 2.19555H1.09778C0.49034 2.19555 0 1.70521 0 1.09778C0 0.49034 0.49034 0 1.09778 0H23.9022C24.5097 0 25 0.49034 25 1.09778C25 1.70521 24.5097 2.19555 23.9022 2.19555Z" fill="#44725A"/>
<path d="M23.9022 9.89184H1.09778C0.49034 9.89184 0 9.4015 0 8.79406C0 8.18663 0.49034 7.69629 1.09778 7.69629H23.9022C24.5097 7.69629 25 8.18663 25 8.79406C25 9.4015 24.5097 9.89184 23.9022 9.89184Z" fill="#44725A"/>
<path d="M23.9022 17.8039H1.09778C0.49034 17.8039 0 17.3136 0 16.7062C0 16.0987 0.49034 15.6084 1.09778 15.6084H23.9022C24.5097 15.6084 25 16.0987 25 16.7062C25 17.3136 24.5097 17.8039 23.9022 17.8039Z" fill="#44725A"/>
</svg>
