<svg width="143" height="130" viewBox="0 0 143 130" fill="none" xmlns="http://www.w3.org/2000/svg">
<path d="M64.3268 126.845L12.2268 74.7448C-7.17321 55.3448 -0.873207 30.4448 13.0268 15.5448C27.5268 0.0447998 52.1268 -6.9552 71.6268 9.2448C90.7268 -6.5552 115.127 0.744804 129.627 16.2448C143.527 31.1448 149.927 55.8448 131.027 74.7448L78.9268 126.845C75.1268 130.645 69.0268 131.145 64.4268 126.845H64.3268ZM76.7268 16.7448C73.8268 19.3448 69.2268 19.1448 66.5268 16.7448C35.3268 -10.1552 -11.0732 39.1448 18.6268 68.3448L70.7268 120.445C71.2268 120.945 72.0268 120.945 72.5268 120.445L124.627 68.3448C153.827 40.1448 106.827 -9.2552 76.7268 16.7448Z" fill="#1C4230"/>
</svg>
