<svg width="123" height="90" viewBox="0 0 133 101" fill="none" xmlns="http://www.w3.org/2000/svg">
    <path
        d="M111.74 100.71H11.91C6.23 100.71 0 90.81 0 81.8V18.91C0 14.23 1.51 9.73 4.24 6.25C7.36 2.28 11.83 0 16.5 0H116.32C125.42 0 132.82 8.48 132.82 18.91V81.8C132.82 94.87 122.23 100.71 111.73 100.71H111.74ZM12.89 91.71H111.73C119.41 91.71 123.82 88.1 123.82 81.8V18.91C123.82 13.54 120.39 9 116.32 9H16.5C14.59 9 12.75 10 11.32 11.82C9.82 13.72 9 16.24 9 18.92V81.81C9 86.76 11.69 90.57 12.89 91.72V91.71Z"
        fill="#FAF7EB" />
    <path
        d="M67.1298 53.1703C66.2898 53.1703 65.4398 52.9303 64.6998 52.4603L3.27979 13.0303L8.13979 5.46031L67.0098 43.2503L121.07 5.07031L126.26 12.4203L69.7198 52.3503C68.9398 52.9003 68.0298 53.1703 67.1198 53.1703H67.1298Z"
        fill="#FAF7EB" />
</svg>