<svg width="20" height="16" viewBox="0 0 20 16" fill="none" xmlns="http://www.w3.org/2000/svg">
<path d="M16.8258 15.1649H1.7934C0.938112 15.1649 0 13.6741 0 12.3174V2.84746C0 2.14275 0.227375 1.46514 0.638458 0.941123C1.10827 0.343322 1.78136 0 2.48457 0H17.5154C18.8857 0 20 1.27692 20 2.84746V12.3174C20 14.2855 18.4054 15.1649 16.8243 15.1649H16.8258ZM1.94097 13.8097H16.8243C17.9807 13.8097 18.6448 13.2661 18.6448 12.3174V2.84746C18.6448 2.03885 18.1283 1.35522 17.5154 1.35522H2.48457C2.19696 1.35522 1.91989 1.5058 1.70456 1.77985C1.47869 2.06595 1.35522 2.44542 1.35522 2.84897V12.3189C1.35522 13.0643 1.76028 13.638 1.94097 13.8112V13.8097Z" fill="#FAF7EB"/>
<path d="M10.1087 8.00643C9.98217 8.00643 9.85418 7.9703 9.74275 7.89952L0.494141 1.96216L1.22596 0.822276L10.0906 6.51268L18.2309 0.76355L19.0124 1.87031L10.4987 7.88296C10.3812 7.96578 10.2442 8.00643 10.1072 8.00643H10.1087Z" fill="#FAF7EB"/>
</svg>
