<svg xmlns="http://www.w3.org/2000/svg" width="122.06" height="120.61">
    <path fill="#FAF7EB"
        d="M2.24 33.43c3.13 19.69 11.47 37.15 24.84 51.88 16.35 18.02 36.58 28.84 60.91 32.73 8.61 1.37 18.58 1.15 27.46-10.54 3.77-3.7 8.56-14.9-.93-25.07-2.47-2.29-4.44-4.3-6.59-6.28-6.94-6.39-17.59-6.53-24.27-.34-6.85 6.76-7.19 7.29-9.57 12.75 0 0-27.84-8.89-41.6-40.21 5.49-2.22 6.65-1.64 13.68-9.71 6.63-7.08 6.57-18.41-.52-25.38L39.3 7.18C31.97.13 20.68.3 13.57 7.56 3.71 17.33 1.13 21.07 2.24 33.43ZM17.1 11.01c6.8-5.43 12.06-5.43 18.76-.28l6.32 6.04c5.25 5.16 5.41 13.11.38 18.48 0 0-5.83 7.23-10.27 7.86 0 0-7.08 1.57-3.85 8.51 9.37 19.32 23.55 32.95 42.92 41.26 0 0 5.33 2.66 7.62-3.19 0 0 1.17-4.05 8.03-10.26 5.19-4.5 12.51-4.3 17.56.35 2.11 1.94 4.1 3.88 6.5 6.2 6.87 5.95 3.64 14.55.75 18.16-6.56 8.69-13.48 10.58-23.09 9.02-22.92-3.47-42.43-14.01-58.01-31.17-12.71-14-20.67-30.6-23.61-49.33-.28-9.33-1-10.73 9.99-21.64Z"
        style="stroke:#FAF7EB;stroke-miterlimit:10;stroke-width:4px" />
</svg>