<svg width="42" height="42" viewBox="0 0 42 42" fill="none" xmlns="http://www.w3.org/2000/svg">
<circle cx="21" cy="21" r="21" fill="#FAF7EB"/>
<path d="M9.5 18H10.63V25H9.29L5.79 19.59L5.9 22.07V25H4.77V18H6.1L9.6 23.4L9.5 20.93V18ZM16.0023 19.5H17.2123L13.5723 27.5H12.3623L13.8123 24.3L11.6423 19.5H12.8523L14.4123 23.08L16.0023 19.5ZM21.137 19.38C22.367 19.38 23.117 20.19 23.117 21.53V25H21.987V21.76C21.987 20.91 21.607 20.46 20.777 20.46C19.817 20.46 19.297 21.09 19.297 22.15V25H18.167V17.3H19.297V20.4C19.687 19.76 20.287 19.38 21.137 19.38ZM27.0368 19.38C28.8068 19.38 29.9268 20.75 29.8168 22.56H25.3468C25.4368 23.57 26.1468 24.13 27.0668 24.13C27.7268 24.13 28.2768 23.85 28.5368 23.31H29.7068C29.2768 24.54 28.2268 25.12 27.0568 25.12C25.3868 25.12 24.1968 23.92 24.1968 22.26C24.1968 20.6 25.3768 19.38 27.0368 19.38ZM27.0368 20.36C26.1768 20.36 25.5968 20.9 25.4068 21.64H28.6068C28.4368 20.89 27.8668 20.36 27.0368 20.36ZM34.8998 23.8L35.0998 24.72C34.7998 24.9 34.1598 25.12 33.5298 25.12C32.3998 25.12 31.5198 24.41 31.5198 22.89V20.56H30.4998V19.5H31.5198V18.25L32.6498 18V19.5H34.9098V20.56H32.6498V22.83C32.6498 23.63 33.0198 24.07 33.7298 24.07C34.0798 24.07 34.4698 23.95 34.8998 23.8ZM37.5946 18V20.52L37.5246 22.8H36.5346L36.4546 20.52V18H37.5946ZM37.0246 23.7C37.4446 23.7 37.7646 24 37.7646 24.41C37.7646 24.82 37.4446 25.12 37.0246 25.12C36.6046 25.12 36.2946 24.82 36.2946 24.41C36.2946 24 36.6046 23.7 37.0246 23.7Z" fill="#44725A"/>
</svg>
