<?xml version="1.0" encoding="UTF-8"?>
<svg id="Lager_2" data-name="Lager 2" xmlns="http://www.w3.org/2000/svg" viewBox="0 0 1366.13 608.79">
  <defs>
    <style>
      .cls-1 {
        fill: #1c4231;
        stroke-width: 0px;
      }
    </style>
  </defs>
  <g id="Lager_1-2" data-name="Lager 1">
    <path class="cls-1" d="M32.55,575.16c-29.6-77.73,56.96-186.26,201.51-271.56C423.26,191.96,459.8,26.72,716.83,35.66c219.57,18.67,441.86,48.15,552.58,173.74l27.31-33.14c-188.67-172.6-735.59-288.82-975.13-3.21C225.77,287.31-17.78,363.62,1.03,561.49"/>
    <path class="cls-1" d="M79.31,608.79c-24.63-79.44,68.6-182.3,218.25-258.3,195.87-99.48,242.77-262.08,498.72-236.93,217.96,32.49,437.94,75.95,540.51,208.27l29.35-31.35C1188.74,106.31,650.25-44.2,393.15,225.73c-102.85,107.98-350.72,168.76-344.44,367.43"/>
  </g>
</svg>