<svg id="Lager_2" xmlns="http://www.w3.org/2000/svg" viewBox="0 0 2048 879.74">
    <defs>
        <style>
            .cls-2{fill:#44725a}
        </style>
    </defs>
    <g id="gronatryck_x5F_logo_x5F_horizontal_x5F_green">
        <g id="gronatryck_x5F_logo_x5F_horizontal_x5F_green-2" data-name="gronatryck_x5F_logo_x5F_horizontal_x5F_green">
            <path id="gronatryck_x5F_logo_x5F_horizontal_x5F_freezone" style="fill:none" d="M0 0h2048v879.74H0z"/>
            <g id="wordmark_x5F_light_x5F_stoltz">
                <path id="wordmark_x5F_k" class="cls-2" d="m1791.4 698.35-116.24-95.72c-1.63-1.34-4.08-.18-4.08 1.93v91.87a2.49 2.49 0 0 1-2.49 2.49h-12.73a2.49 2.49 0 0 1-2.49-2.49V498.64a2.49 2.49 0 0 1 2.49-2.49h12.73a2.49 2.49 0 0 1 2.49 2.49v89.26c0 2.11 2.45 3.27 4.08 1.92l112.9-93.11c.45-.37 1.01-.57 1.59-.57h15.57c2.34 0 3.39 2.93 1.59 4.42l-113.01 93.32c-1.21 1-1.21 2.84 0 3.84l116.4 96.79c1.79 1.49.74 4.41-1.59 4.41H1793c-.58 0-1.14-.2-1.59-.57Z"/>
                <path id="wordmark_x5F_c" class="cls-2" d="M1402.66 597.53c-4.09-112.55 158.42-143.99 198.03-42.53.64 1.63-.61 3.42-2.36 3.42h-11.35c-.91 0-1.74-.52-2.17-1.33-42.19-79.88-160.28-60.66-166.78 40.27v.34c2.02 92.85 126.03 124.47 166.78 40.34.41-.85 1.26-1.41 2.21-1.41h11.32c1.75 0 2.99 1.79 2.36 3.42-39.63 101.49-202.13 69.98-198.03-42.52Z"/>
                <path id="wordmark_x5F_r" class="cls-2" d="M1077.36 617.8h-43a2.49 2.49 0 0 0-2.49 2.49v76.13a2.49 2.49 0 0 1-2.49 2.49h-10.66a2.49 2.49 0 0 1-2.49-2.49V498.63a2.49 2.49 0 0 1 2.49-2.49h71.79c91.25-.08 93.23 113.43 12.26 121.16-2.07.2-3.15 2.54-1.79 4.11l63.2 73.38c1.39 1.62.24 4.12-1.89 4.12h-12.83c-.73 0-1.42-.32-1.89-.87l-68.32-79.38c-.47-.55-1.16-.87-1.89-.87Zm-45.49-16.4c0 1.38 1.08 2.49 2.46 2.48 42.37-.17 113.07 9.74 111.67-46.91.01-30.67-25.07-45.35-56.43-45.47-31.59-.12-50.54-.57-55.25-.57-1.38 0-2.46 1.1-2.46 2.48v87.99Z"/>
                <path id="wordmark_x5F_y" class="cls-2" d="M1298.19 623.71v72.71a2.49 2.49 0 0 1-2.49 2.49h-10.66a2.49 2.49 0 0 1-2.49-2.49v-72.13c0-.45-.12-.9-.36-1.28l-73.85-123.09c-1-1.66.2-3.78 2.14-3.78h11.86c.87 0 1.68.46 2.13 1.2l63.76 105.35c.97 1.6 3.3 1.6 4.27 0l63.77-105.35c.45-.75 1.26-1.2 2.13-1.2h11.85c1.94 0 3.14 2.12 2.14 3.78l-73.84 122.51c-.23.39-.36.83-.36 1.29Z"/>
                <path id="wordmark_x5F_t" class="cls-2" d="M954.38 510.91h-74.16a2.49 2.49 0 0 0-2.49 2.49v183.02a2.49 2.49 0 0 1-2.49 2.49h-12.63a2.49 2.49 0 0 1-2.49-2.49V513.4a2.49 2.49 0 0 0-2.49-2.49h-74.16a2.49 2.49 0 0 1-2.49-2.49v-9.79a2.49 2.49 0 0 1 2.49-2.49H954.4a2.49 2.49 0 0 1 2.49 2.49v9.79a2.49 2.49 0 0 1-2.49 2.49Z"/>
                <path id="wordmark_x5F_a" class="cls-2" d="M1784.02 374.67h-96.59c-1.01 0-1.93.61-2.31 1.55l-26.26 64.39c-.38.94-1.3 1.55-2.31 1.55h-11.1c-1.78 0-2.98-1.8-2.31-3.45l81.66-197.79c.39-.93 1.3-1.54 2.31-1.54h17.23c1.01 0 1.92.61 2.31 1.54l81.66 197.79c.68 1.64-.53 3.45-2.31 3.45h-11.1c-1.01 0-1.93-.61-2.31-1.55l-26.26-64.39c-.38-.94-1.3-1.55-2.31-1.55Zm-5.82-17.92-40.3-97.84c-.85-2.06-3.77-2.06-4.61 0l-40.03 97.84c-.67 1.64.54 3.44 2.31 3.44h80.33c1.78 0 2.98-1.8 2.31-3.44Z"/>
                <path id="wordmark_x5F_n" class="cls-2" d="M1605.2 241.89v197.79a2.49 2.49 0 0 1-2.49 2.49h-16.77c-.82 0-1.59-.4-2.05-1.08l-121.76-176.4c-1.4-2.03-4.58-1.05-4.55 1.41.67 47.06 1.28 129.99 1.05 173.62 0 1.37-1.12 2.44-2.49 2.44h-10.38a2.49 2.49 0 0 1-2.49-2.49V241.88a2.49 2.49 0 0 1 2.49-2.49h16.48c.82 0 1.59.4 2.05 1.07l122.05 176.42c1.4 2.03 4.58 1.05 4.54-1.42-.67-47.05-1.28-130-1.05-173.64 0-1.37 1.12-2.44 2.49-2.44h10.38a2.49 2.49 0 0 1 2.49 2.49Z"/>
                <path id="wordmark_x5F_o" class="cls-2" d="M1398.92 340.79c1.23 137.5-209.4 137.25-208.28 0-.89-137.27 209.51-137.45 208.28 0Zm-192.64 0c0 120.36 177 119.23 176.99 0-1.49-118.72-172.55-122.1-176.99 0Zm67.21-150.35c.33 14.57-23.72 14.85-23.46 0-.28-15.26 23.82-14.98 23.46 0Zm65.75 0c.35 14.71-24.1 14.71-23.75 0-.38-15.13 24.13-15.12 23.75 0Z"/>
                <path id="wordmark_x5F_r-2" data-name="wordmark_x5F_r" class="cls-2" d="M1077.36 361.06h-43a2.49 2.49 0 0 0-2.49 2.49v76.13a2.49 2.49 0 0 1-2.49 2.49h-10.66a2.49 2.49 0 0 1-2.49-2.49V241.89a2.49 2.49 0 0 1 2.49-2.49h71.79c91.25-.08 93.23 113.43 12.26 121.16-2.07.2-3.15 2.54-1.79 4.11l63.2 73.38c1.39 1.62.24 4.12-1.89 4.12h-12.83c-.73 0-1.42-.32-1.89-.87l-68.32-79.38c-.47-.55-1.16-.87-1.89-.87Zm-45.49-16.4c0 1.38 1.08 2.49 2.46 2.48 42.37-.17 113.07 9.74 111.67-46.91.01-30.67-25.07-45.35-56.43-45.47-31.59-.12-50.54-.57-55.25-.57-1.38 0-2.46 1.1-2.46 2.48v87.99Z"/>
                <path id="wordmark_x5F_g" class="cls-2" d="M963.19 341.54v98.14a2.49 2.49 0 0 1-2.49 2.49h-8.92a2.49 2.49 0 0 1-2.49-2.49v-42.64c0-1.08-.57-1.11-.97-.11-25.26 77.98-185.88 59.04-185.88-56.12v-.06c5.18-123.3 158.48-143.63 198.01-43.08.64 1.63-.6 3.42-2.35 3.42h-11.3c-.96 0-1.83-.58-2.23-1.46-37.63-82.25-163.51-59.98-166.77 41.58v.29c3.31 106.46 167.94 121.64 169.9 13.73.03-1.4-1.13-2.58-2.53-2.58h-85.52a2.49 2.49 0 0 1-2.49-2.49v-8.62a2.49 2.49 0 0 1 2.49-2.49h101.04a2.49 2.49 0 0 1 2.49 2.49Z"/>
            </g>
            <g id="logomark_x5F_stump">
                <path id="logomark_x5F_stump_x5F_ring_x5F_03" class="cls-2" d="M437.21 196.9c-143.39-7.48-257.25 101.29-270.22 235.66-15.31 131.2 65.3 256.41 201.61 280.39 378.45 50.02 445.75-475.5 68.61-516.06Zm203.12 377.72c1.88-68.57 7.58-177.12 12.79-207.06.19-1.11 1.7-1.3 2.13-.26 9.89 23.84 40.32 102.52-12.78 207.84-.54 1.07-2.17.68-2.14-.52ZM179.26 453.99c-.13-160.63 178.68-279.75 278.41-234.51 41.15 17.57 25.53 38.9 51.52 97.34 93.49 148.72-10.11 341.84-136.09 358.08-144.75 13.36-195.64-140.78-193.84-220.91ZM486.8 219.51c-6.14-9.72 86.97 24.71 89.86 50.34 60.76 262.72-94.79 413.84-100.8 419.13-35.31 35.31-165.2 2.41-121.81 2.41 195.36-13.88 249.71-261.58 175.43-371.4-32.21-51.94-15.99-75.72-42.67-100.47Zm156.45 123.92c-15.15 40.59-9.61 233.46-22.61 261.86-33.45 61.85-139.21 100.11-131.33 88.59 86.28-87.2 138.99-236.95 102.33-415.63-1.09-19.55 52.31 47.45 51.61 65.18Z"/>
                <path id="logomark_x5F_stump_x5F_ring_x5F_02" class="cls-2" d="M337.18 628.87c90.15 14.28 228.89-101.31 155.76-222.12-29.14-48.14-12.78-137.92-89.61-147.39-178.68-22.02-276.71 332.7-66.16 369.51ZM235.12 435.03c17.33-124.41 201.77-261.28 225.02-77.79 10.33 81.52 67.18 89.79 20.51 170.59-103.93 163.16-272.25 79.86-245.53-92.8Z"/>
                <path id="logomark_x5F_stump_x5F_ring_x5F_01" class="cls-2" d="M359.31 320.07s-73.75-6.86-95.4 100.89c-12.99 85.73 41.51 142.4 99.81 143.3 70.01-1.29 137.17-87.9 86.15-146.85-15.19-18.33-12.32-22.71-17.59-39.03-8.18-26.35-27.65-55.3-72.96-58.31Zm-38.02 30.1c9.44-7.47 20.9-12.3 32.94-12.51 36.95-.64 59.02 29.88 63.86 48.82 1.22 4.77 2.99 23.42 13.97 33.82 48.62 46.04-3.91 125.04-71.23 125.02-83.2-1.99-108.88-140.28-39.53-195.14Z"/>
                <path id="logomark_x5F_stump_x5F_g" class="cls-2" d="M351.83 404.3c17.07-10.43 30.77 2.58 45.69 6.78 5.06-4.37-4.4-12.41-8.31-15.3-42.25-26.15-94.19 19.17-70.08 67.25 43 85.75 148.8-20.38 76.6-23.57-22.17-1.8-38.05 6.69-19.94 8.38 41.05 6.12 25.7 29.44-5.41 35.68-36.7 3.58-61.46-53.34-18.54-79.23Z"/>
            </g>
        </g>
    </g>
</svg>
