<svg xmlns="http://www.w3.org/2000/svg" viewBox="0 0 53.22 68.31">
    <path fill="#44725A"
        d="M27.02 0C12.35-.41 10.99 12.98 11.06 15.16 4.86 15.78 0 21.02 0 27.38v28.65c0 6.78 5.5 12.28 12.28 12.28h28.65c6.78 0 12.28-5.5 12.28-12.28V27.38c0-6.42-4.96-11.7-11.25-12.23C41.85 12.43 41.05.41 27.01.01Zm10.71 15.1H15.29c-.36-3.41 1.18-10.86 11.54-10.87 9.36 0 11.4 7.02 10.9 10.87ZM15.29 28.36v-8.01c0-.56.45-1.01 1.01-1.01h20.41c.56 0 1.01.45 1.01 1.01v8.01c.07 3.23 4.25 3.35 4.24 0v-7.7c.12-2.57 6.92.25 7.02 6.72v28.65c0 4.44-3.6 8.05-8.05 8.05H12.28c-4.44 0-8.05-3.6-8.05-8.05V27.38c.15-6.52 6.89-9.15 6.82-6.65v7.63c0 2.86 4.19 3.04 4.24 0Z"
        data-name="övriga" />
</svg>