<svg xmlns="http://www.w3.org/2000/svg" width="447.97" height="318.19">
    <path fill="#44725A"
        d="M243.22 161.29c11.14-6.06 18.72-17.87 18.72-31.41 0-19.7-16.03-35.72-35.73-35.72s-35.73 16.02-35.73 35.72c0 12.97 6.94 24.34 17.31 30.6-27.89 6.8-48.54 30.72-48.54 59.12 0 5.95 9 5.89 9 0 0-28.7 25.01-52.06 55.74-52.06s55.74 23.36 55.74 52.06c0 5.95 9 5.89 9 0 0-27.36-19.17-50.57-45.51-58.31Zm-43.75-31.41c0-14.73 11.99-26.72 26.73-26.72s26.73 11.99 26.73 26.72-11.99 26.73-26.73 26.73-26.73-11.99-26.73-26.73Z" />
</svg>